<svg width="80" height="80" viewBox="0 0 80 80" fill="none" xmlns="http://www.w3.org/2000/svg">
<rect width="80" height="80" fill="#F5F5F5"/>
<rect width="80" height="80" fill="white"/>
<path d="M47.79 65.09C46.11 65.09 44.2433 64.74 42.19 64.04C40.1833 63.34 38.1067 62.4767 35.96 61.45C33.8133 60.47 31.69 59.5133 29.59 58.58C28.4233 59.8867 27.21 60.89 25.95 61.59C24.69 62.3367 23.3133 62.71 21.82 62.71C20.3267 62.71 19.0667 62.36 18.04 61.66C16.9667 60.96 16.1733 60.12 15.66 59.14C15.1 58.2067 14.82 57.3667 14.82 56.62C14.82 55.78 15.2167 55.0567 16.01 54.45C16.7567 53.8433 18.0633 53.54 19.93 53.54C21.1433 53.54 22.4733 53.68 23.92 53.96C25.4133 54.24 26.9533 54.59 28.54 55.01C29.66 53.05 30.6867 50.7633 31.62 48.15C32.6 45.5367 33.5567 42.76 34.49 39.82C35.4233 36.88 36.3567 33.94 37.29 31C35.1433 30.3 33.44 29.2733 32.18 27.92C30.9667 26.5667 30.36 25.0967 30.36 23.51C30.36 22.67 30.5233 21.83 30.85 20.99C31.2233 20.15 31.7367 19.45 32.39 18.89C33.0433 18.2833 33.8133 17.98 34.7 17.98C34.3733 18.4467 34.14 19.1233 34 20.01C33.86 20.8967 33.79 21.6667 33.79 22.32C33.79 24.0933 34.1633 25.5867 34.91 26.8C35.6567 27.9667 36.6133 28.8767 37.78 29.53C38.7133 26.73 39.67 24.0933 40.65 21.62C41.6767 19.1 42.7967 16.86 44.01 14.9C45.2233 12.94 46.5533 11.4 48 10.28C49.4467 9.16 51.0567 8.6 52.83 8.6C53.7633 8.6 54.7433 8.81 55.77 9.23C56.8433 9.65 57.7533 10.3733 58.5 11.4C59.2467 12.4267 59.62 13.8733 59.62 15.74C59.62 17.3267 59.2933 19.0533 58.64 20.92C57.9867 22.74 56.9833 24.49 55.63 26.17C54.2767 27.8033 52.55 29.1567 50.45 30.23C48.35 31.2567 45.8767 31.7933 43.03 31.84C42.9833 31.84 42.8667 31.84 42.68 31.84C42.54 31.84 42.2133 31.84 41.7 31.84C40.7667 34.6867 39.7633 37.58 38.69 40.52C37.6633 43.46 36.5667 46.26 35.4 48.92C34.2333 51.5333 32.9733 53.8667 31.62 55.92C33.7667 56.5733 35.9367 57.25 38.13 57.95C40.3233 58.6033 42.4467 59.14 44.5 59.56C46.5533 60.0267 48.4433 60.26 50.17 60.26C51.15 60.26 52.0367 60.1667 52.83 59.98C53.6233 59.7933 54.3933 59.5133 55.14 59.14C54.3933 61.2867 53.39 62.8033 52.13 63.69C50.9167 64.6233 49.47 65.09 47.79 65.09ZM21.54 60.68C22.5667 60.68 23.5233 60.4 24.41 59.84C25.3433 59.28 26.1833 58.4867 26.93 57.46C25.4833 56.8533 24.06 56.3633 22.66 55.99C21.3067 55.57 20.07 55.36 18.95 55.36C18.0633 55.36 17.4567 55.4767 17.13 55.71C16.8033 55.9433 16.64 56.27 16.64 56.69C16.64 57.4833 17.1067 58.3467 18.04 59.28C18.9267 60.2133 20.0933 60.68 21.54 60.68ZM42.12 30.51C44.22 30.51 46.11 29.9267 47.79 28.76C49.5167 27.5467 50.9633 26.0533 52.13 24.28C53.3433 22.46 54.2533 20.6167 54.86 18.75C55.5133 16.8833 55.84 15.25 55.84 13.85C55.84 12.4967 55.5833 11.5867 55.07 11.12C54.5567 10.6067 53.9733 10.35 53.32 10.35C51.8733 10.35 50.52 11.2833 49.26 13.15C48 15.0167 46.7867 17.49 45.62 20.57C44.5 23.6033 43.3333 26.9167 42.12 30.51Z" fill="#3F51B5"/>
<path d="M61.52 65.09C60.9133 65.09 60.3067 64.9733 59.7 64.74C59.14 64.5533 58.6733 64.18 58.3 63.62C57.88 63.06 57.6233 62.3133 57.53 61.38C58.37 61.94 59.1633 62.22 59.91 62.22C60.89 62.22 61.66 61.6133 62.22 60.4C62.78 59.1867 63.2233 57.6467 63.55 55.78C63.9233 53.9133 64.2267 51.9767 64.46 49.97C64.6933 47.9167 64.9967 45.84 65.37 43.74C65.7433 41.64 66.28 39.7733 66.98 38.14C67.68 36.5067 68.66 35.3633 69.92 34.71C69.2667 33.9633 68.8 33.17 68.52 32.33C68.2867 31.4433 68.17 30.5567 68.17 29.67C68.17 28.1767 68.4033 26.6133 68.87 24.98C69.3833 23.3 69.9667 21.6433 70.62 20.01C71.32 18.3767 71.9033 16.8833 72.37 15.53C72.8833 14.13 73.14 12.94 73.14 11.96C73.14 11.68 73.0933 11.4467 73 11.26C72.9067 11.0267 72.6733 10.91 72.3 10.91C72.1133 10.91 71.7867 11.0033 71.32 11.19C70.9 11.33 70.3867 11.6333 69.78 12.1C69.8733 11.12 70.3867 10.3033 71.32 9.65C72.2533 8.95 73.3267 8.6 74.54 8.6C75.4733 8.6 76.1733 8.85666 76.64 9.37C77.1067 9.83666 77.34 10.3733 77.34 10.98C77.34 11.7733 77.0833 12.8467 76.57 14.2C76.0567 15.5067 75.45 16.9767 74.75 18.61C74.05 20.2433 73.4433 21.9233 72.93 23.65C72.4167 25.3767 72.16 27.0333 72.16 28.62C72.16 29.8333 72.3 31.07 72.58 32.33C72.86 33.5433 73.5367 34.5233 74.61 35.27C72.93 35.69 71.6467 36.6233 70.76 38.07C69.92 39.5167 69.3133 41.29 68.94 43.39C68.6133 45.4433 68.3567 47.59 68.17 49.83C68.03 51.6967 67.8433 53.54 67.61 55.36C67.4233 57.18 67.12 58.8133 66.7 60.26C66.3267 61.7533 65.72 62.92 64.88 63.76C64.04 64.6467 62.92 65.09 61.52 65.09Z" fill="url(#paint0_linear_0_1)"/>
<path d="M7.14 64.09C5.41333 64.09 4.22333 63.6 3.57 62.62C2.91667 61.6867 2.59 60.6367 2.59 59.47C2.59 58.2567 2.84667 56.9267 3.36 55.48C3.87333 53.9867 4.48 52.4467 5.18 50.86C5.88 49.2733 6.48667 47.71 7 46.17C7.51333 44.5833 7.77 43.09 7.77 41.69C7.77 40.29 7.60667 39.0067 7.28 37.84C7 36.6733 6.32333 35.67 5.25 34.83C6.88333 34.6433 8.09667 33.92 8.89 32.66C9.68333 31.3533 10.2433 29.7433 10.57 27.83C10.8967 25.87 11.13 23.84 11.27 21.74C11.41 19.9667 11.5733 18.2633 11.76 16.63C11.9467 14.95 12.25 13.4333 12.67 12.08C13.09 10.68 13.6967 9.58333 14.49 8.79C15.33 7.99667 16.45 7.6 17.85 7.6C18.4567 7.6 19.0167 7.71666 19.53 7.95C20.09 8.13666 20.5567 8.51 20.93 9.07C21.35 9.58333 21.6067 10.33 21.7 11.31C21.3267 11.0767 20.93 10.8667 20.51 10.68C20.1367 10.4467 19.7633 10.33 19.39 10.33C18.3633 10.33 17.57 10.9833 17.01 12.29C16.45 13.55 16.0067 15.1833 15.68 17.19C15.4 19.15 15.12 21.2033 14.84 23.35C14.6067 25.31 14.3033 27.1767 13.93 28.95C13.6033 30.7233 13.1133 32.1933 12.46 33.36C11.8533 34.48 10.99 35.11 9.87 35.25C10.5233 35.9033 10.99 36.6033 11.27 37.35C11.55 38.0967 11.69 39.0067 11.69 40.08C11.69 42.2267 11.41 44.2333 10.85 46.1C10.3367 47.92 9.73 49.6467 9.03 51.28C8.33 52.8667 7.7 54.3833 7.14 55.83C6.62667 57.2767 6.37 58.7 6.37 60.1C6.37 60.7067 6.53333 61.22 6.86 61.64C7.18667 62.1067 7.79333 62.34 8.68 62.34C9.38 62.34 9.96333 62.1533 10.43 61.78C10.3833 62.6667 10.01 63.2733 9.31 63.6C8.65667 63.9267 7.93333 64.09 7.14 64.09Z" fill="url(#paint1_linear_0_1)"/>
<defs>
<linearGradient id="paint0_linear_0_1" x1="69.5" y1="-5" x2="69.5" y2="69" gradientUnits="userSpaceOnUse">
<stop offset="0.2" stop-color="#FF9800"/>
<stop offset="0.8" stop-color="#E91E63"/>
</linearGradient>
<linearGradient id="paint1_linear_0_1" x1="11.5" y1="-6" x2="11.5" y2="68" gradientUnits="userSpaceOnUse">
<stop offset="0.2" stop-color="#E91E63"/>
<stop offset="0.8" stop-color="#FF9800"/>
</linearGradient>
</defs>
</svg>
